<svg width="7" height="12" viewBox="0 0 7 12" version="1.1" xmlns="http://www.w3.org/2000/svg" xmlns:xlink="http://www.w3.org/1999/xlink">
<title>icon_price</title>
<desc>Created using Figma</desc>
<g id="Canvas" transform="translate(-92 -1509)">
<g id="icon_price">
<use xlink:href="#path0_fill" transform="translate(92 1509)" fill="#56C5D0"/>
</g>
</g>
<defs>
<path id="path0_fill" d="M 3.65333 5.26667C 2.14 4.87333 1.65333 4.46667 1.65333 3.83333C 1.65333 3.10667 2.32667 2.6 3.45333 2.6C 4.64 2.6 5.08 3.16667 5.12 4L 6.59333 4C 6.54667 2.85333 5.84667 1.8 4.45333 1.46L 4.45333 0L 2.45333 0L 2.45333 1.44C 1.16 1.72 0.12 2.56 0.12 3.84667C 0.12 5.38667 1.39333 6.15333 3.25333 6.6C 4.92 7 5.25333 7.58667 5.25333 8.20667C 5.25333 8.66667 4.92667 9.4 3.45333 9.4C 2.08 9.4 1.54 8.78667 1.46667 8L 1.14441e-07 8C 0.0800001 9.46 1.17333 10.28 2.45333 10.5533L 2.45333 12L 4.45333 12L 4.45333 10.5667C 5.75333 10.32 6.78667 9.56667 6.78667 8.2C 6.78667 6.30667 5.16667 5.66 3.65333 5.26667Z"/>
</defs>
</svg>
