<svg width="18" height="18" viewBox="0 0 18 18" version="1.1" xmlns="http://www.w3.org/2000/svg" xmlns:xlink="http://www.w3.org/1999/xlink">
<title>icon_buy</title>
<desc>Created using Figma</desc>
<g id="Canvas" transform="translate(-347 -1787)">
<g id="icon_buy">
<use xlink:href="#path0_fill" transform="translate(347 1787)" fill="#FFFFFF"/>
</g>
</g>
<defs>
<path id="path0_fill" d="M 5.4 14.4C 4.41 14.4 3.609 15.21 3.609 16.2C 3.609 17.19 4.41 18 5.4 18C 6.39 18 7.2 17.19 7.2 16.2C 7.2 15.21 6.39 14.4 5.4 14.4ZM 0 0L 0 1.8L 1.8 1.8L 5.04 8.631L 3.825 10.836C 3.681 11.088 3.6 11.385 3.6 11.7C 3.6 12.69 4.41 13.5 5.4 13.5L 16.2 13.5L 16.2 11.7L 5.778 11.7C 5.652 11.7 5.553 11.601 5.553 11.475L 5.58 11.367L 6.39 9.9L 13.095 9.9C 13.77 9.9 14.364 9.531 14.67 8.973L 17.892 3.132C 17.964 3.006 18 2.853 18 2.7C 18 2.205 17.595 1.8 17.1 1.8L 3.789 1.8L 2.943 0L 0 0ZM 14.4 14.4C 13.41 14.4 12.609 15.21 12.609 16.2C 12.609 17.19 13.41 18 14.4 18C 15.39 18 16.2 17.19 16.2 16.2C 16.2 15.21 15.39 14.4 14.4 14.4Z"/>
</defs>
</svg>
