<svg width="38" height="37" viewBox="0 0 38 37" version="1.1" xmlns="http://www.w3.org/2000/svg" xmlns:xlink="http://www.w3.org/1999/xlink">
<title>icon_twitter</title>
<desc>Created using Figma</desc>
<g id="Canvas" transform="translate(1120 -184)">
<g id="icon_twitter">
<g id="Vector">
<mask id="mask0_outline_ins">
<use xlink:href="#path0_fill" fill="white" transform="translate(-1120 184)"/>
</mask>
<g mask="url(#mask0_outline_ins)">
<use xlink:href="#path1_stroke_2x" transform="translate(-1120 184)" fill="#FFFFFF"/>
</g>
</g>
<g id="Vector">
<use xlink:href="#path2_fill" transform="translate(-1109 196)" fill="#F1F2F2"/>
</g>
</g>
</g>
<defs>
<path id="path0_fill" d="M 18.6 37C 28.8725 37 37.2 28.7173 37.2 18.5C 37.2 8.28273 28.8725 0 18.6 0C 8.3275 0 0 8.28273 0 18.5C 0 28.7173 8.3275 37 18.6 37Z"/>
<path id="path1_stroke_2x" d="M 36.2 18.5C 36.2 28.1599 28.3253 36 18.6 36L 18.6 38C 29.4197 38 38.2 29.2746 38.2 18.5L 36.2 18.5ZM 18.6 36C 8.8747 36 1 28.1599 1 18.5L -1 18.5C -1 29.2746 7.78031 38 18.6 38L 18.6 36ZM 1 18.5C 1 8.84009 8.8747 1 18.6 1L 18.6 -1C 7.78031 -1 -1 7.72537 -1 18.5L 1 18.5ZM 18.6 1C 28.3253 1 36.2 8.84009 36.2 18.5L 38.2 18.5C 38.2 7.72537 29.4197 -1 18.6 -1L 18.6 1Z"/>
<path id="path2_fill" d="M 15.8258 1.54617C 15.2437 1.80829 14.6175 1.98557 13.9608 2.06475C 14.6313 1.65682 15.1458 1.01135 15.3887 0.240974C 14.7613 0.618909 14.0661 0.893078 13.3269 1.04086C 12.7346 0.400312 11.8908 -3.00161e-08 10.9563 -3.00161e-08C 9.16354 -3.00161e-08 7.70949 1.47658 7.70949 3.29716C 7.70949 3.55559 7.7383 3.80714 7.79399 4.0486C 5.09559 3.91115 2.70301 2.59858 1.10149 0.603172C 0.822065 1.09004 0.661768 1.65682 0.661768 2.26097C 0.661768 3.40461 1.2354 4.41424 2.10613 5.00537C 1.57415 4.9884 1.07316 4.84013 0.635617 4.59252C 0.635375 4.60653 0.635375 4.62055 0.635375 4.63432C 0.635375 6.23187 1.75503 7.56436 3.24007 7.86705C 2.96791 7.94279 2.68049 7.98287 2.38483 7.98287C 2.17514 7.98287 1.97199 7.96246 1.77392 7.9241C 2.18701 9.23372 3.38584 10.187 4.80696 10.2138C 3.69554 11.0983 2.29573 11.6253 0.774121 11.6253C 0.51261 11.6253 0.25352 11.6098 1.5518e-07 11.579C 1.43613 12.5149 3.14322 13.0605 4.9767 13.0605C 10.9488 13.0605 14.2148 8.03647 14.2148 3.67903C 14.2148 3.53617 14.2117 3.3938 14.2054 3.25265C 14.8403 2.78792 15.3906 2.20737 15.8258 1.54617Z"/>
</defs>
</svg>
