<svg width="18" height="17" viewBox="0 0 18 17" version="1.1" xmlns="http://www.w3.org/2000/svg" xmlns:xlink="http://www.w3.org/1999/xlink">
<title>icon_download</title>
<desc>Created using Figma</desc>
<g id="Canvas" transform="translate(87 -1672)">
<g id="icon_download">
<g id="Vector">
<use xlink:href="#path0_fill" transform="translate(-86 1680.24)" fill="#FFFFFF"/>
<mask id="mask0_outline_out">
<rect id="mask0_outline_inv" fill="white" x="-1" y="-1" width="18" height="10" transform="translate(-86 1680.24)"/>
<use xlink:href="#path0_fill" fill="black" transform="translate(-86 1680.24)"/>
</mask>
<g mask="url(#mask0_outline_out)">
<use xlink:href="#path1_stroke_2x" transform="translate(-86 1680.24)" fill="#FFFFFF"/>
</g>
</g>
<g id="Vector">
<use xlink:href="#path2_fill" transform="translate(-81.3744 1673)" fill="#FFFFFF"/>
<mask id="mask1_outline_out">
<rect id="mask1_outline_inv" fill="white" x="-1" y="-1" width="9" height="13" transform="translate(-81.3744 1673)"/>
<use xlink:href="#path2_fill" fill="black" transform="translate(-81.3744 1673)"/>
</mask>
<g mask="url(#mask1_outline_out)">
<use xlink:href="#path3_stroke_2x" transform="translate(-81.3744 1673)" fill="#FFFFFF"/>
</g>
</g>
</g>
</g>
<defs>
<path id="path0_fill" d="M 15.5416 0.0686968C 15.2869 0.0686968 15.0832 0.274788 15.0832 0.532402L 15.0832 4.7504C 15.0832 5.89764 14.1596 6.82849 13.0289 6.82849L 2.97114 6.82849C 1.83701 6.82849 0.916808 5.89421 0.916808 4.7504L 0.916808 0.463705C 0.916808 0.206091 0.713073 -2.09647e-07 0.458404 -2.09647e-07C 0.203735 -2.09647e-07 0 0.206091 0 0.463705L 0 4.7504C 0 6.40943 1.33447 7.7559 2.97114 7.7559L 13.0289 7.7559C 14.6689 7.7559 16 6.406 16 4.7504L 16 0.532402C 16 0.278223 15.7963 0.0686968 15.5416 0.0686968Z"/>
<path id="path1_stroke_2x" d="M 15.5416 -0.431303C 15.0054 -0.431303 14.5832 0.00408111 14.5832 0.532402L 15.5832 0.532402C 15.5832 0.538047 15.5802 0.547625 15.5725 0.555459C 15.5646 0.563423 15.5525 0.568697 15.5416 0.568697L 15.5416 -0.431303ZM 14.5832 0.532402L 14.5832 4.7504L 15.5832 4.7504L 15.5832 0.532402L 14.5832 0.532402ZM 14.5832 4.7504C 14.5832 5.62639 13.8786 6.32849 13.0289 6.32849L 13.0289 7.32849C 14.4406 7.32849 15.5832 6.16889 15.5832 4.7504L 14.5832 4.7504ZM 13.0289 6.32849L 2.97114 6.32849L 2.97114 7.32849L 13.0289 7.32849L 13.0289 6.32849ZM 2.97114 6.32849C 2.11909 6.32849 1.41681 5.62404 1.41681 4.7504L 0.416808 4.7504C 0.416808 6.16437 1.55493 7.32849 2.97114 7.32849L 2.97114 6.32849ZM 1.41681 4.7504L 1.41681 0.463705L 0.416808 0.463705L 0.416808 4.7504L 1.41681 4.7504ZM 1.41681 0.463705C 1.41681 -0.0646159 0.99462 -0.5 0.458404 -0.5L 0.458404 0.5C 0.447528 0.5 0.4354 0.494726 0.427527 0.486762C 0.419783 0.478928 0.416808 0.46935 0.416808 0.463705L 1.41681 0.463705ZM 0.458404 -0.5C -0.0778116 -0.5 -0.5 -0.0646159 -0.5 0.463705L 0.5 0.463705C 0.5 0.46935 0.497026 0.478928 0.489281 0.486762C 0.481409 0.494726 0.46928 0.5 0.458404 0.5L 0.458404 -0.5ZM -0.5 0.463705L -0.5 4.7504L 0.5 4.7504L 0.5 0.463705L -0.5 0.463705ZM -0.5 4.7504C -0.5 6.68052 1.05329 8.2559 2.97114 8.2559L 2.97114 7.2559C 1.61564 7.2559 0.5 6.13835 0.5 4.7504L -0.5 4.7504ZM 2.97114 8.2559L 13.0289 8.2559L 13.0289 7.2559L 2.97114 7.2559L 2.97114 8.2559ZM 13.0289 8.2559C 14.9508 8.2559 16.5 6.67633 16.5 4.7504L 15.5 4.7504C 15.5 6.13567 14.387 7.2559 13.0289 7.2559L 13.0289 8.2559ZM 16.5 4.7504L 16.5 0.532402L 15.5 0.532402L 15.5 4.7504L 16.5 4.7504ZM 16.5 0.532402C 16.5 0.00994388 16.0802 -0.431303 15.5416 -0.431303L 15.5416 0.568697C 15.5283 0.568697 15.5163 0.562419 15.5098 0.555837C 15.5038 0.549716 15.5 0.540962 15.5 0.532402L 16.5 0.532402Z"/>
<path id="path2_fill" d="M 3.05178 11.3178C 3.14007 11.4071 3.25891 11.4552 3.37436 11.4552C 3.48981 11.4552 3.60866 11.4106 3.69694 11.3178L 6.61036 8.37074C 6.79032 8.18869 6.79032 7.89673 6.61036 7.71468C 6.43039 7.53263 6.14176 7.53263 5.9618 7.71468L 3.83277 9.87177L 3.83277 0.463705C 3.83277 0.206091 3.62903 0 3.37436 0C 3.11969 0 2.91596 0.206091 2.91596 0.463705L 2.91596 9.87177L 0.783531 7.71468C 0.603565 7.53263 0.31494 7.53263 0.134974 7.71468C -0.0449916 7.89673 -0.0449916 8.18869 0.134974 8.37074L 3.05178 11.3178Z"/>
<path id="path3_stroke_2x" d="M 3.05178 11.3178L 3.40736 10.9663L 3.40716 10.9661L 3.05178 11.3178ZM 3.69694 11.3178L 3.3413 10.9663L 3.3348 10.9731L 3.69694 11.3178ZM 6.61036 8.37074L 6.25478 8.01922L 6.61036 8.37074ZM 5.9618 7.71468L 5.60622 7.36316L 5.60594 7.36345L 5.9618 7.71468ZM 3.83277 9.87177L 3.33277 9.87177L 3.33277 11.0901L 4.18863 10.223L 3.83277 9.87177ZM 2.91596 9.87177L 2.56038 10.2233L 3.41596 11.0888L 3.41596 9.87177L 2.91596 9.87177ZM 0.783531 7.71468L 0.427951 8.06619L 0.427951 8.06619L 0.783531 7.71468ZM 0.134974 8.37074L -0.220606 8.72225L -0.220401 8.72246L 0.134974 8.37074ZM 2.6962 11.6694C 2.87729 11.8525 3.12371 11.9552 3.37436 11.9552L 3.37436 10.9552C 3.38558 10.9552 3.3927 10.9574 3.39658 10.9591C 3.4007 10.9608 3.40426 10.9632 3.40736 10.9663L 2.6962 11.6694ZM 3.37436 11.9552C 3.61648 11.9552 3.86962 11.8616 4.05909 11.6626L 3.3348 10.9731C 3.3477 10.9595 3.36314 10.9552 3.37436 10.9552L 3.37436 11.9552ZM 4.05252 11.6694L 6.96594 8.72225L 6.25478 8.01922L 3.34136 10.9663L 4.05252 11.6694ZM 6.96594 8.72225C 7.33846 8.34542 7.33846 7.74 6.96594 7.36316L 6.25478 8.06619C 6.24218 8.05345 6.24218 8.03196 6.25478 8.01922L 6.96594 8.72225ZM 6.96594 7.36316C 6.59025 6.98314 5.9819 6.98314 5.60622 7.36316L 6.31738 8.06619C 6.3112 8.07244 6.29933 8.07814 6.28608 8.07814C 6.27283 8.07814 6.26095 8.07244 6.25478 8.06619L 6.96594 7.36316ZM 5.60594 7.36345L 3.47691 9.52053L 4.18863 10.223L 6.31766 8.06591L 5.60594 7.36345ZM 4.33277 9.87177L 4.33277 0.463705L 3.33277 0.463705L 3.33277 9.87177L 4.33277 9.87177ZM 4.33277 0.463705C 4.33277 -0.0646157 3.91058 -0.5 3.37436 -0.5L 3.37436 0.5C 3.36349 0.5 3.35136 0.494726 3.34349 0.486762C 3.33574 0.478928 3.33277 0.46935 3.33277 0.463705L 4.33277 0.463705ZM 3.37436 -0.5C 2.83815 -0.5 2.41596 -0.0646157 2.41596 0.463705L 3.41596 0.463705C 3.41596 0.46935 3.41298 0.478928 3.40524 0.486762C 3.39737 0.494726 3.38524 0.5 3.37436 0.5L 3.37436 -0.5ZM 2.41596 0.463705L 2.41596 9.87177L 3.41596 9.87177L 3.41596 0.463705L 2.41596 0.463705ZM 3.27154 9.52025L 1.13911 7.36316L 0.427951 8.06619L 2.56038 10.2233L 3.27154 9.52025ZM 1.13911 7.36316C 0.763429 6.98314 0.155077 6.98314 -0.220606 7.36316L 0.490554 8.06619C 0.484378 8.07244 0.472501 8.07814 0.459253 8.07814C 0.446004 8.07814 0.434128 8.07244 0.427951 8.06619L 1.13911 7.36316ZM -0.220606 7.36316C -0.593132 7.74 -0.593132 8.34542 -0.220606 8.72225L 0.490554 8.01922C 0.503148 8.03196 0.503148 8.05345 0.490554 8.06619L -0.220606 7.36316ZM -0.220401 8.72246L 2.69641 11.6696L 3.40716 10.9661L 0.49035 8.01901L -0.220401 8.72246Z"/>
</defs>
</svg>
