<svg width="10" height="10" viewBox="0 0 10 10" version="1.1" xmlns="http://www.w3.org/2000/svg" xmlns:xlink="http://www.w3.org/1999/xlink">
<title>icon_calendar</title>
<desc>Created using Figma</desc>
<g id="Canvas" transform="translate(-90 -1432)">
<g id="icon_calendar">
<use xlink:href="#path0_fill" transform="translate(90 1432)" fill="#56C5D0"/>
</g>
</g>
<defs>
<path id="path0_fill" d="M 3.33333 4.5L 2.22222 4.5L 2.22222 5.5L 3.33333 5.5L 3.33333 4.5ZM 5.55556 4.5L 4.44444 4.5L 4.44444 5.5L 5.55556 5.5L 5.55556 4.5ZM 7.77778 4.5L 6.66667 4.5L 6.66667 5.5L 7.77778 5.5L 7.77778 4.5ZM 8.88889 1L 8.33333 1L 8.33333 0L 7.22222 0L 7.22222 1L 2.77778 1L 2.77778 0L 1.66667 0L 1.66667 1L 1.11111 1C 0.494444 1 0.00555555 1.45 0.00555555 2L 0 9C 0 9.55 0.494444 10 1.11111 10L 8.88889 10C 9.5 10 10 9.55 10 9L 10 2C 10 1.45 9.5 1 8.88889 1ZM 8.88889 9L 1.11111 9L 1.11111 3.5L 8.88889 3.5L 8.88889 9Z"/>
</defs>
</svg>
