<svg width="38" height="37" viewBox="0 0 38 37" version="1.1" xmlns="http://www.w3.org/2000/svg" xmlns:xlink="http://www.w3.org/1999/xlink">
<title>icon_facebook</title>
<desc>Created using Figma</desc>
<g id="Canvas" transform="translate(1065 -184)">
<g id="icon_facebook">
<g id="Vector">
<mask id="mask0_outline_ins">
<use xlink:href="#path0_fill" fill="white" transform="translate(-1064.2 184)"/>
</mask>
<g mask="url(#mask0_outline_ins)">
<use xlink:href="#path1_stroke_2x" transform="translate(-1064.2 184)" fill="#FFFFFF"/>
</g>
</g>
<g id="Vector">
<use xlink:href="#path2_fill" transform="translate(-1050 194)" fill="#FFFFFF"/>
</g>
</g>
</g>
<defs>
<path id="path0_fill" d="M 18.6 37C 28.8725 37 37.2 28.7173 37.2 18.5C 37.2 8.28273 28.8725 0 18.6 0C 8.3275 0 0 8.28273 0 18.5C 0 28.7173 8.3275 37 18.6 37Z"/>
<path id="path1_stroke_2x" d="M 36.2 18.5C 36.2 28.1599 28.3253 36 18.6 36L 18.6 38C 29.4197 38 38.2 29.2746 38.2 18.5L 36.2 18.5ZM 18.6 36C 8.8747 36 1 28.1599 1 18.5L -1 18.5C -1 29.2746 7.78031 38 18.6 38L 18.6 36ZM 1 18.5C 1 8.84009 8.8747 1 18.6 1L 18.6 -1C 7.78031 -1 -1 7.72537 -1 18.5L 1 18.5ZM 18.6 1C 28.3253 1 36.2 8.84009 36.2 18.5L 38.2 18.5C 38.2 7.72537 29.4197 -1 18.6 -1L 18.6 1Z"/>
<path id="path2_fill" d="M 7.84266 8.98266L 5.41885 8.98266L 5.41885 18L 1.74655 18L 1.74655 8.98266L 6.65057e-08 8.98266L 6.65057e-08 5.81361L 1.74655 5.81361L 1.74655 3.76288C 1.74655 2.29638 2.43254 1.20064e-07 5.45153 1.20064e-07L 8.17173 0.0115568L 8.17173 3.08766L 6.19805 3.08766C 5.87431 3.08766 5.41909 3.25192 5.41909 3.95148L 5.41909 5.81656L 8.1635 5.81656L 7.84266 8.98266Z"/>
</defs>
</svg>
