<svg width="12" height="12" viewBox="0 0 12 12" version="1.1" xmlns="http://www.w3.org/2000/svg" xmlns:xlink="http://www.w3.org/1999/xlink">
<title>icon_search</title>
<desc>Created using Figma</desc>
<g id="Canvas" transform="translate(69 216)">
<g id="icon_search">
<use xlink:href="#path0_fill" transform="translate(-69 -216)" fill="#FFFFFF"/>
</g>
</g>
<defs>
<path id="path0_fill" d="M 11.8175 10.9301L 8.85934 7.9597C 9.61995 7.08675 10.0367 5.98841 10.0367 4.845C 10.0367 2.17351 7.78542 0 5.01834 0C 2.25127 0 5.93031e-09 2.17351 5.93031e-09 4.845C 5.93031e-09 7.51648 2.25127 9.68999 5.01834 9.68999C 6.05714 9.68999 7.04707 9.38749 7.89342 8.81326L 10.8741 11.8062C 10.9987 11.9311 11.1663 12 11.3458 12C 11.5158 12 11.677 11.9374 11.7994 11.8237C 12.0595 11.5821 12.0678 11.1814 11.8175 10.9301ZM 5.01834 1.26391C 7.06365 1.26391 8.72756 2.87034 8.72756 4.845C 8.72756 6.81965 7.06365 8.42608 5.01834 8.42608C 2.97304 8.42608 1.30913 6.81965 1.30913 4.845C 1.30913 2.87034 2.97304 1.26391 5.01834 1.26391Z"/>
</defs>
</svg>
