<svg width="20" height="20" viewBox="0 0 20 20" version="1.1" xmlns="http://www.w3.org/2000/svg" xmlns:xlink="http://www.w3.org/1999/xlink">
<title>Vector</title>
<desc>Created using Figma</desc>
<g id="Canvas" transform="translate(522 100)">
<g id="Vector">
<use xlink:href="#path0_fill" transform="translate(-522 -100)" fill="#FFFFFF"/>
</g>
</g>
<defs>
<path id="path0_fill" d="M 9 15L 11 15L 11 9L 9 9L 9 15ZM 10 0C 4.48 0 0 4.48 0 10C 0 15.52 4.48 20 10 20C 15.52 20 20 15.52 20 10C 20 4.48 15.52 0 10 0ZM 10 18C 5.59 18 2 14.41 2 10C 2 5.59 5.59 2 10 2C 14.41 2 18 5.59 18 10C 18 14.41 14.41 18 10 18ZM 9 7L 11 7L 11 5L 9 5L 9 7Z"/>
</defs>
</svg>
